<?xml version="1.1" encoding="UTF-8" standalone="no"?>
<svg width="400px" height="250px" xmlns="http://www.w3.org/2000/svg" version="1.1">
    <title></title>
    <description>Created with Sketch (http://www.bohemiancoding.com/sketch)</description>
    <defs>
        <linearGradient id="gradient-1" x1="50%" y1="0%" x2="50%" y2="100%">
            <stop offset="0%" style="stop-color:rgb(255,255,255); stop-opacity:100"></stop>
            <stop offset="100%" style="stop-color:rgb(0,0,0); stop-opacity:100"></stop>
        </linearGradient>
    </defs>
    <g fill="rgb(215,215,215)" id="Page 1">
        <g fill="rgb(0,0,0)" id="Rectangle 8"></g>
        <path id="Rectangle 8" d="M0,6 C0,3 3,0 6,0 L394,0 C397,0 400,3 400,6 L400,244 C400,247 397,250 394,250 L6,250 C3,250 0,247 0,244 Z M179,20 C179,21 180,23 182,23 L219,23 C220,23 222,21 222,20 C222,18 220,17 219,17 L182,17 C180,17 179,18 179,20 Z M179,20" fill="rgb(0,0,0)"></path>
        <path id="Rectangle 8 decoration" d="" fill="rgb(0,0,0)"></path>
    </g>
</svg>